<svg xmlns="http://www.w3.org/2000/svg" viewBox="0 0 1000 640" role="img" aria-label="Ilustração de ambiente da coleção"><defs>
<radialGradient id="room"><stop stop-color="#2b3b42"/><stop offset="1" stop-color="#090d18"/></radialGradient>
<radialGradient id="halo"><stop stop-color="#c9ad70" stop-opacity=".32"/><stop offset="1" stop-color="#c9ad70" stop-opacity="0"/></radialGradient>
<linearGradient id="wood" x2=".2" y2="1"><stop stop-color="#6c4833"/><stop offset=".35" stop-color="#302420"/><stop offset=".7" stop-color="#583a2b"/><stop offset="1" stop-color="#201b1b"/></linearGradient>
<linearGradient id="paper" x2=".8" y2="1"><stop stop-color="#f1dfb6"/><stop offset=".5" stop-color="#d3b888"/><stop offset="1" stop-color="#a98b63"/></linearGradient>
<linearGradient id="gold" x2=".6" y2="1"><stop stop-color="#f5dd9e"/><stop offset=".35" stop-color="#ac8147"/><stop offset=".52" stop-color="#e3c37d"/><stop offset="1" stop-color="#75532f"/></linearGradient>
<linearGradient id="glass" x2="1" y2="1"><stop stop-color="#d1f5e4" stop-opacity=".23"/><stop offset=".4" stop-color="#7ab6bd" stop-opacity=".02"/><stop offset=".55" stop-color="#d1f5e4" stop-opacity=".13"/><stop offset="1" stop-color="#7ab6bd" stop-opacity=".02"/></linearGradient>
<linearGradient id="purple" x2=".3" y2="1"><stop stop-color="#79637d"/><stop offset=".5" stop-color="#393048"/><stop offset="1" stop-color="#1c192b"/></linearGradient>
<linearGradient id="green" x2=".3" y2="1"><stop stop-color="#668778"/><stop offset="1" stop-color="#233e38"/></linearGradient>
<linearGradient id="red" x2=".6" y2="1"><stop stop-color="#86545a"/><stop offset="1" stop-color="#3b242e"/></linearGradient>
<linearGradient id="blue" x2=".6" y2="1"><stop stop-color="#577b8d"/><stop offset="1" stop-color="#1d3449"/></linearGradient>
<pattern id="grain" width="140" height="19" patternUnits="userSpaceOnUse"><path d="M0 4Q40 -3 140 4M0 14Q60 8 140 15" fill="none" stroke="#d6b18b" stroke-opacity=".08" stroke-width="1"/></pattern>
<pattern id="cloth" width="8" height="8" patternUnits="userSpaceOnUse"><path d="M0 1H8M1 0V8" stroke="#dec998" stroke-opacity=".055"/></pattern>
<filter id="shadow" x="-.4" y="-.4" width="1.8" height="1.9"><feDropShadow dx="0" dy="14" stdDeviation="14" flood-color="#000" flood-opacity=".65"/></filter>
<filter id="soft"><feGaussianBlur stdDeviation="18"/></filter>
<g id="spark" stroke="#f4d998"><path d="M-5 0H5M0 -5V5"/><circle r="1.5" fill="#ffe8b1"/></g>
<g id="frog" fill="url(#gold)" stroke="#77532e" stroke-width="2"><ellipse cx="0" cy="12" rx="45" ry="24"/><path d="M-24 10Q-70 -20 -55 24L-70 34Q-30 44 -22 27M24 10Q70 -20 55 24L70 34Q30 44 22 27"/><ellipse cy="-10" rx="32" ry="23"/><circle cx="-20" cy="-25" r="10"/><circle cx="20" cy="-25" r="10"/><circle cx="-20" cy="-26" r="3" fill="#251c1a"/><circle cx="20" cy="-26" r="3" fill="#251c1a"/><path d="M-15 -5Q0 5 15 -5" fill="none"/><path d="M-23 10Q0 -1 23 10" fill="none" opacity=".5"/></g>
<g id="phoenix" fill="url(#gold)" stroke="#ad8049" stroke-width="1.5"><path d="M0 0Q-40 -8 -78 -80L-65 -23 -115 -62 -76 -7 -110 -20 -65 19 -28 20Q-9 50 -29 82Q10 65 19 22L48 22 92 -10 58 -4 106 -60 63 -28 71 -82Q28 -13 9 -3L18 -17 2 -21 -12 -12Z"/><path d="M-66 -36L-17 11M64 -39L19 10M-24 56L4 21" fill="none" stroke="#e9d09b"/></g>
<g id="owl" fill="url(#paper)" stroke="#987649" stroke-width="2"><path d="M-30 -42L-40 -69 -11 -49Q0 -55 11 -49L40 -69 30 -42Q56 2 31 45L-31 45Q-54 0 -30 -42Z"/><ellipse cx="-17" cy="-18" rx="20" ry="24"/><ellipse cx="17" cy="-18" rx="20" ry="24"/><circle cx="-17" cy="-17" r="8" fill="#23212a"/><circle cx="17" cy="-17" r="8" fill="#23212a"/><path d="M-6 -3L0 9 6 -3M-17 22L0 29 17 22" fill="none"/></g>
<g id="castle" fill="#536773"><path d="M0 60V-32L12 -60 24 -32V16H43V-48L56 -88 69 -48V30H85V-16L95 -46 106 -16V28H121V-35L134 -67 147 -35V60Z"/><path d="M5 60Q78 28 156 60" fill="#76817c"/><g stroke="#d6c49c" stroke-width="3"><path d="M12 -20V-6M54 -30V-16M60 1V14M95 1V13M135 -18V-3"/></g></g>
</defs><rect width="1000" height="640" fill="url(#room)"/><ellipse cx="500" cy="295" rx="440" ry="280" fill="url(#halo)"/><rect x="126" y="66" width="748" height="509" rx="5" fill="url(#wood)" stroke="#ac8553" stroke-width="2"/><rect x="138" y="78" width="724" height="485" rx="2" fill="#0d151b" stroke="#6e5137" stroke-width="3"/><path d="M144 87Q500 -24 857 87" fill="none" stroke="url(#gold)" stroke-width="3"/><path d="M364 85V554M647 85V554" stroke="url(#wood)" stroke-width="21"/><path d="M141 341H859" stroke="url(#wood)" stroke-width="22"/>
<g transform="translate(503 209)" fill="none" stroke="url(#gold)"><ellipse rx="91" ry="63" transform="rotate(-25)" stroke-width="5"/><ellipse rx="41" ry="95" transform="rotate(33)" stroke-width="5"/><ellipse rx="96" ry="22" transform="rotate(19)" stroke-width="5"/><circle r="39" fill="url(#blue)" stroke-width="3"/><path d="M0 84V110M-68 117Q0 98 68 117" stroke-width="9"/><path d="M-16 -27Q22 -3 4 31M-30 8Q0 -2 36 14" stroke="#b8b696" stroke-width="1"/></g>
<g transform="translate(249 252)" stroke="#b49d70" stroke-width="2"><path d="M-16 -101H16V-47Q67 -21 56 45Q0 60 -56 45Q-67 -21 -16 -47Z" fill="url(#glass)"/><path d="M-51 3Q0 -12 51 3V42Q0 56 -51 42Z" fill="#668b82" opacity=".8"/><ellipse cy="3" rx="49" ry="10" fill="#a6c5a0" opacity=".6"/><rect x="-20" y="-110" width="40" height="21" rx="3" fill="url(#wood)"/><use href="#spark" x="6" y="21"/></g>
<g transform="translate(750 221) rotate(-22)" stroke="url(#gold)" fill="none" stroke-width="7"><circle cy="-46" r="25"/><circle cy="-46" r="12"/><path d="M0 -20V64H25V52H12V40H25"/></g>
<g transform="translate(245 466)" fill="url(#gold)" stroke="#a2824d"><path d="M-62 36L-50 -15Q0 -70 50 -15L62 36Z"/><circle cy="-8" r="38" fill="url(#blue)"/><path d="M-17 -25L24 -1 -14 22Z" fill="none" stroke="#d7c791" stroke-width="2"/></g><g transform="translate(500 435)"><path d="M-75 -52H75L61 79H-62Z" fill="url(#purple)" stroke="url(#gold)" stroke-width="3"/><path d="M-66 -42H65L52 70H-52Z" fill="none" stroke="#a68e63"/><use href="#spark" transform="scale(2)"/></g><g transform="translate(755 450)" stroke="url(#gold)" fill="none"><ellipse rx="41" ry="70" stroke-width="3"/><ellipse rx="41" ry="70" transform="rotate(55)" stroke-width="3"/><circle r="18" fill="url(#green)" stroke-width="3"/></g><path d="M113 577H889L906 600H93Z" fill="url(#wood)" stroke="#aa8652"/><rect width="1000" height="640" fill="url(#cloth)" opacity=".45"/></svg>